# xmcd
#
# Track frame offsets:
#	150
#	21525
#	45826
#	80027
#	103203
#	105228
#	124503
#
# Disc length: 2003 seconds
#
# Revision: 1
# Processed by: cddbd v1.5.1PL0 Copyright (c) Steve Scherf et al.
# Submitted via: CDex 1.50Beta5
#
DISCID=4f07d107
DTITLE=ソラミミ - 初耳
DYEAR=1900
DGENRE=Pop
TTITLE0=あの場所へ
TTITLE1=名画座にて
TTITLE2=東京
TTITLE3=Flash
TTITLE4=〜末広通り 6:40〜
TTITLE5=二人
TTITLE6=Life
EXTD=
EXTT0=
EXTT1=
EXTT2=
EXTT3=
EXTT4=
EXTT5=
EXTT6=
PLAYORDER=
